<?xml version="1.0" standalone="no"?>
<!DOCTYPE svg PUBLIC "-//W3C//DTD SVG 20010904//EN"
 "http://www.w3.org/TR/2001/REC-SVG-20010904/DTD/svg10.dtd">
<svg version="1.0" xmlns="http://www.w3.org/2000/svg"
 width="904.000000pt" height="1280.000000pt" viewBox="0 0 904.000000 1280.000000"
 preserveAspectRatio="xMidYMid meet">
<metadata>
Created by potrace 1.15, written by Peter Selinger 2001-2017
</metadata>
<g transform="translate(0.000000,1280.000000) scale(0.100000,-0.100000)"
fill="#000000" stroke="none">
<path d="M5055 12794 c-133 -31 -189 -55 -232 -96 -90 -86 -56 -196 108 -360
l88 -87 -52 -5 c-29 -3 -92 -8 -141 -11 -230 -16 -292 -52 -211 -124 34 -29
192 -111 215 -111 20 0 6 -17 -65 -80 -104 -92 -141 -146 -156 -230 -10 -58
-15 -70 -28 -64 -101 41 -428 138 -511 152 -94 16 -215 30 -371 43 -183 15
-339 -5 -339 -43 0 -7 24 -36 54 -64 102 -99 360 -204 781 -319 94 -25 179
-49 190 -52 13 -4 -40 -21 -145 -48 -183 -47 -292 -91 -310 -126 -11 -20 -10
-25 14 -45 25 -22 137 -62 279 -99 37 -10 67 -21 67 -24 0 -4 -37 -25 -82 -46
-206 -101 -210 -145 -13 -180 48 -8 89 -15 90 -15 3 0 -4 -131 -11 -198 l-5
-52 -62 55 c-130 117 -285 162 -395 115 -142 -61 -208 -241 -139 -382 45 -91
114 -138 203 -138 45 0 172 34 253 69 39 17 71 29 71 27 0 -2 -16 -28 -36 -57
-142 -211 -286 -633 -384 -1130 l-23 -116 -89 -17 c-222 -42 -478 -133 -696
-246 -326 -169 -580 -378 -861 -708 -30 -34 -51 -65 -49 -68 3 -2 83 -9 179
-15 188 -10 294 -22 404 -45 88 -18 216 -60 241 -79 17 -13 12 -14 -51 -15
-266 -1 -693 -99 -1119 -257 -297 -110 -1102 -464 -1129 -496 -40 -48 -147
-207 -180 -268 -71 -131 -59 -192 62 -294 42 -35 121 -103 176 -150 185 -158
420 -313 660 -436 83 -42 157 -79 165 -81 12 -4 7 -15 -21 -44 -47 -50 -59
-74 -59 -117 0 -72 73 -121 242 -162 57 -14 114 -25 128 -25 51 -1 63 -22 64
-110 l1 -81 -84 -56 c-97 -65 -256 -214 -344 -322 -135 -168 -281 -424 -382
-669 -182 -445 -309 -1041 -331 -1554 l-7 -156 229 -75 c208 -68 229 -77 232
-98 14 -115 37 -212 62 -263 30 -63 115 -160 150 -171 27 -8 25 -21 -2 -28
-68 -15 -276 -81 -313 -98 -23 -11 -47 -31 -53 -44 -10 -22 -8 -29 20 -60 28
-33 176 -115 206 -115 18 0 15 -7 -33 -89 -133 -229 -190 -487 -167 -760 7
-72 13 -136 14 -142 2 -8 -15 -16 -42 -21 -399 -74 -611 -145 -800 -266 -53
-33 -180 -148 -180 -162 0 -4 682 -10 1517 -13 1505 -7 1516 -7 1551 -27 l35
-21 216 21 c119 12 217 22 217 23 2 2 -68 961 -111 1527 -14 184 -25 346 -24
360 2 30 17 -124 110 -1115 40 -424 77 -772 81 -773 5 -2 6 -8 2 -13 -6 -10
2644 -13 3066 -2 l273 6 -81 79 c-199 191 -556 366 -879 429 -87 17 -113 26
-113 38 0 67 -23 313 -36 386 -34 197 -127 405 -232 518 -32 34 -29 38 93 103
106 55 125 70 125 96 0 29 -73 56 -197 74 -59 9 -109 17 -110 18 -2 1 2 40 7
87 5 46 10 132 10 191 0 103 1 108 23 113 12 3 87 18 167 34 162 33 354 74
358 76 4 3 -96 421 -148 616 -213 799 -479 1419 -822 1915 -94 135 -104 152
-96 159 3 4 46 10 95 15 131 14 193 33 250 76 133 101 67 293 -204 598 -60 68
-59 70 32 81 445 51 1108 354 1620 738 225 169 570 486 602 554 16 34 38 46
29 16 -3 -10 -30 -100 -60 -200 -31 -100 -56 -188 -56 -197 0 -21 74 -79 146
-115 102 -51 241 -56 365 -16 l46 16 40 197 c33 165 42 197 56 194 28 -5 96
37 113 70 15 30 15 87 -1 129 -3 9 7 21 31 34 51 27 71 61 98 167 16 58 31 97
42 103 47 27 119 94 136 125 25 49 32 117 19 168 -12 41 -14 44 -131 102 -124
62 -133 71 -118 125 5 17 13 70 18 119 6 50 13 92 15 94 2 3 27 0 55 -5 l50
-10 79 151 c367 700 592 1385 656 1998 8 81 15 156 15 167 0 17 -40 33 -293
116 -162 52 -296 95 -299 95 -10 0 -141 -207 -229 -360 -326 -570 -502 -1120
-525 -1643 -7 -158 10 -397 29 -409 7 -4 36 -10 65 -14 41 -5 50 -9 39 -18 -8
-6 -20 -27 -27 -46 -25 -65 -48 -78 -188 -101 -134 -22 -216 -48 -313 -101
-50 -26 -70 -31 -117 -29 -71 3 -106 -10 -147 -53 -17 -19 -47 -41 -66 -51
-115 -59 -304 -241 -464 -448 -49 -64 -93 -116 -97 -117 -14 0 -183 221 -283
370 -56 85 -195 308 -307 495 -113 187 -226 373 -251 413 l-47 72 56 198 c30
108 57 204 60 213 3 11 12 15 28 12 27 -6 73 16 101 47 l20 22 76 -83 c59 -64
80 -81 94 -75 16 6 17 15 12 94 -5 70 -36 228 -62 312 -4 14 11 15 123 12 254
-8 372 57 372 203 -1 130 -54 210 -324 495 l-205 215 62 20 c119 39 197 122
197 210 0 29 2 30 66 10 135 -41 597 -53 1002 -26 196 13 240 21 195 34 -102
29 -393 126 -485 161 -231 88 -504 243 -630 358 l-48 43 -10 349 c-16 531 -31
637 -127 864 l-35 82 -252 0 -251 1 -50 86 c-65 112 -163 214 -240 249 -57 26
-160 40 -210 28z m2822 -4540 c-3 -3 -12 -4 -19 -1 -8 3 -5 6 6 6 11 1 17 -2
13 -5z m-1504 -953 l28 -6 -45 -61 -46 -61 -139 -6 c-124 -6 -559 8 -569 17
-15 15 263 93 397 111 100 13 325 17 374 6z m-4121 -511 c-6 -62 26 -133 100
-221 l49 -59 -71 0 c-68 0 -74 2 -212 76 -79 42 -152 81 -163 87 -17 9 2 21
140 88 88 42 160 78 161 78 1 1 -1 -21 -4 -49z m1145 -4752 c-3 -8 -6 -5 -6 6
-1 11 2 17 5 13 3 -3 4 -12 1 -19z"/>
</g>
</svg>
